<svg viewBox="0 0 100 150" xmlns="http://www.w3.org/2000/svg">
  <!-- Body Main Shape -->
  <path d="M50 20 L35 45 L35 90 L25 100 L25 130 L35 135 L65 135 L75 130 L75 100 L65 90 L65 45 Z" fill="#051015" stroke="#00FFFF" stroke-width="2"/>
  
  <!-- Nose Cone -->
  <path d="M50 5 L35 45 L65 45 Z" fill="#0A2025" stroke="#00FFFF" stroke-width="2"/>
  
  <!-- Front Wing -->
  <rect x="20" y="5" width="60" height="10" rx="2" fill="#051015" stroke="#00FF00" stroke-width="2"/>
  
  <!-- Rear Wing -->
  <rect x="25" y="135" width="50" height="15" rx="2" fill="#051015" stroke="#00FFFF" stroke-width="2"/>
  
  <!-- Side Pods -->
  <path d="M25 60 L35 60 L35 90 L25 90 Z" fill="#0A2025" stroke="#00FF00" stroke-width="1.5"/>
  <path d="M75 60 L65 60 L65 90 L75 90 Z" fill="#0A2025" stroke="#00FF00" stroke-width="1.5"/>
  
  <!-- Cockpit -->
  <ellipse cx="50" cy="75" rx="8" ry="12" fill="#000" stroke="#00FFFF" stroke-width="1"/>
  
  <!-- Engine Cover / Spine -->
  <path d="M50 87 L50 125" stroke="#00FF00" stroke-width="2"/>
  <circle cx="50" cy="95" r="4" fill="none" stroke="#00FFFF" stroke-width="1.5"/>
  <circle cx="50" cy="110" r="4" fill="none" stroke="#00FFFF" stroke-width="1.5"/>

  <!-- Tires -->
  <rect x="10" y="30" width="15" height="25" rx="3" fill="#111" stroke="#00FFFF" stroke-width="1.5"/>
  <rect x="75" y="30" width="15" height="25" rx="3" fill="#111" stroke="#00FFFF" stroke-width="1.5"/>
  <rect x="10" y="100" width="18" height="28" rx="3" fill="#111" stroke="#00FFFF" stroke-width="1.5"/>
  <rect x="72" y="100" width="18" height="28" rx="3" fill="#111" stroke="#00FFFF" stroke-width="1.5"/>

  <!-- Number -->
  <text x="50" y="60" font-family="Arial, sans-serif" font-weight="bold" font-size="14" fill="#00FFFF" text-anchor="middle">01</text>
  
  <!-- Glow Effect Filter (Optional, keeping simple) -->
</svg>
